<?xml version="1.0" encoding="UTF-8"?>
<svg width="48px" height="54px" viewBox="0 0 48 54" version="1.1" xmlns="http://www.w3.org/2000/svg" xmlns:xlink="http://www.w3.org/1999/xlink">
    <!-- Generator: Sketch 54.1 (76490) - https://sketchapp.com -->
    <title>icon-school-cloud</title>
    <desc>Created with Sketch.</desc>
    <g id="Homepage" stroke="none" stroke-width="1" fill="none" fill-rule="evenodd">
        <g id="School-Buttons" transform="translate(-87.000000, 0.000000)">
            <g id="cloud_icon" transform="translate(84.000000, 0.000000)">
                <path d="M29.8125,1.62379763 L47.5701859,11.8762024 C49.310567,12.8810118 50.3826859,14.7379763 50.3826859,16.7475953 L50.3826859,37.2524047 C50.3826859,39.2620237 49.310567,41.1189882 47.5701859,42.1237976 L29.8125,52.3762024 C28.0721189,53.3810118 25.9278811,53.3810118 24.1875,52.3762024 L6.4298141,42.1237976 C4.68943304,41.1189882 3.6173141,39.2620237 3.6173141,37.2524047 L3.6173141,16.7475953 C3.6173141,14.7379763 4.68943304,12.8810118 6.4298141,11.8762024 L24.1875,1.62379763 C25.9278811,0.61898816 28.0721189,0.61898816 29.8125,1.62379763 Z" id="Polygon" fill="#2A77AA" fill-rule="evenodd"></path>
                <path d="M39.9835431,28.1335583 L39.7137751,28.1335583 C39.7240284,27.9956128 39.7310997,27.8567865 39.7310997,27.7160223 C39.7310997,24.6570867 37.2427292,22.1770638 34.1729258,22.1770638 C33.8670946,22.1770638 33.5674506,22.2027855 33.274878,22.2501767 C32.2771256,18.0714695 28.509744,14.9625 24.0111959,14.9625 C18.7508982,14.9625 14.4865851,19.2123821 14.4865851,24.454661 C14.4865851,24.5159701 14.4901207,24.5763983 14.4911814,24.637355 C11.8534309,25.2971324 9.9,27.6751496 9.9,30.5085805 C9.9,33.8520396 12.6197769,36.5625 15.9747282,36.5625 L39.9835431,36.5625 C42.3191747,36.5625 44.2125,34.6756601 44.2125,32.3480291 C44.2125,30.0203981 42.3191747,28.1335583 39.9835431,28.1335583" id="Fill-1" stroke="#FFFFFF" stroke-width="2.8125"></path>
            </g>
        </g>
    </g>
</svg>